<svg width="20" height="20" viewBox="0 0 20 20" fill="none" xmlns="http://www.w3.org/2000/svg">
<path d="M10.6698 9.62061H4.74662C4.39371 9.62061 4.09104 9.88846 4.06559 10.2402C4.05871 10.3321 4.07087 10.4245 4.10132 10.5115C4.13176 10.5985 4.17983 10.6782 4.24252 10.7458C4.30521 10.8133 4.38117 10.8672 4.46565 10.904C4.55012 10.9409 4.64129 10.9599 4.73345 10.9599H10.6564C11.0093 10.9599 11.312 10.692 11.3375 10.3402C11.3443 10.2484 11.3322 10.1561 11.3018 10.0691C11.2713 9.98211 11.2233 9.90236 11.1606 9.83481C11.0979 9.76726 11.022 9.71337 10.9376 9.67652C10.8531 9.63966 10.762 9.62062 10.6698 9.62061ZM10.6698 13.6385H4.74662C4.39371 13.6385 4.09104 13.9063 4.06559 14.2581C4.05871 14.35 4.07087 14.4423 4.10132 14.5293C4.13176 14.6163 4.17983 14.6961 4.24252 14.7636C4.30521 14.8312 4.38117 14.8851 4.46565 14.9219C4.55012 14.9587 4.64129 14.9778 4.73345 14.9777H10.6564C11.0093 14.9777 11.312 14.7099 11.3375 14.3581C11.3443 14.2662 11.3322 14.1739 11.3018 14.0869C11.2713 14 11.2233 13.9202 11.1606 13.8527C11.0979 13.7851 11.022 13.7312 10.9376 13.6944C10.8531 13.6575 10.762 13.6385 10.6698 13.6385Z" fill="#3C3D3D"/>
<path d="M17.9259 1.33936H6.67232C6.47759 1.33936 6.29082 1.41665 6.15304 1.55426C6.01526 1.69188 5.93774 1.87855 5.9375 2.07328V4.59828H13.6161C14.0897 4.59828 14.5439 4.78642 14.8788 5.12131C15.2136 5.45619 15.4018 5.9104 15.4018 6.384V14.0626H17.9259C18.1208 14.0626 18.3077 13.9851 18.4455 13.8473C18.5833 13.7095 18.6607 13.5226 18.6607 13.3277V2.07328C18.6605 1.87855 18.583 1.69188 18.4452 1.55426C18.3074 1.41665 18.1206 1.33936 17.9259 1.33936Z" fill="#C4C4C4"/>
<path d="M17.9259 0H6.67232C6.12239 -5.09543e-08 5.59497 0.218399 5.20602 0.607176C4.81708 0.995954 4.59845 1.52328 4.59821 2.07321V4.59821H1.78571C1.31211 4.59821 0.85791 4.78635 0.523024 5.12124C0.188137 5.45612 0 5.91033 0 6.38393V18.2143C0 18.6879 0.188137 19.1421 0.523024 19.477C0.85791 19.8119 1.31211 20 1.78571 20H13.6161C14.0897 20 14.5439 19.8119 14.8788 19.477C15.2136 19.1421 15.4018 18.6879 15.4018 18.2143V15.4018H17.9259C18.476 15.4018 19.0035 15.1833 19.3925 14.7943C19.7815 14.4053 20 13.8778 20 13.3277V2.07321C19.9998 1.52328 19.7811 0.995954 19.3922 0.607176C19.0032 0.218399 18.4758 -5.09543e-08 17.9259 0ZM18.6607 13.3277C18.6607 13.5226 18.5833 13.7095 18.4455 13.8473C18.3077 13.9851 18.1208 14.0625 17.9259 14.0625H15.4018V6.38393C15.4018 5.91033 15.2136 5.45612 14.8788 5.12124C14.5439 4.78635 14.0897 4.59821 13.6161 4.59821H5.9375V2.07321C5.9375 1.87833 6.01492 1.69142 6.15272 1.55362C6.29053 1.41581 6.47743 1.33839 6.67232 1.33839H17.9259C18.1208 1.33839 18.3077 1.41581 18.4455 1.55362C18.5833 1.69142 18.6607 1.87833 18.6607 2.07321V13.3277ZM14.0625 18.2143C14.0621 18.3326 14.015 18.4459 13.9314 18.5296C13.8477 18.6132 13.7344 18.6604 13.6161 18.6607H1.78571C1.66731 18.6607 1.55376 18.6137 1.47004 18.53C1.38632 18.4462 1.33929 18.3327 1.33929 18.2143V6.38393C1.33929 6.26553 1.38632 6.15198 1.47004 6.06826C1.55376 5.98453 1.66731 5.9375 1.78571 5.9375H13.6161C13.7345 5.9375 13.848 5.98453 13.9317 6.06826C14.0155 6.15198 14.0625 6.26553 14.0625 6.38393V18.2143Z" fill="#313132"/>
</svg>
