<svg width="66" height="70" viewBox="0 0 66 70" fill="none" xmlns="http://www.w3.org/2000/svg">
<path d="M26.3333 9.875V0L39.5 13.1667L26.3333 26.3333V16.4583C15.4379 16.4583 6.58333 25.3129 6.58333 36.2083L6.84667 39.5H0.1975L0 36.2083C0 21.6592 11.7842 9.875 26.3333 9.875ZM49.375 3.29167H59.25C62.8708 3.29167 65.8333 6.25417 65.8333 9.875V62.5417C65.8333 66.1625 62.8708 69.125 59.25 69.125H49.375C45.7542 69.125 42.7917 66.1625 42.7917 62.5417V9.875C42.7917 6.25417 45.7542 3.29167 49.375 3.29167ZM6.58333 46.0833H36.2083V69.125H6.58333C2.9625 69.125 0 66.1625 0 62.5417V52.6667C0 49.0458 2.9625 46.0833 6.58333 46.0833Z" fill="#666666"/>
</svg>
